<svg width="20" height="21" viewBox="0 0 20 21" fill="none" xmlns="http://www.w3.org/2000/svg">
<path fill-rule="evenodd" clip-rule="evenodd" d="M9.37508 2.4765C9.37508 2.13132 9.6549 1.8515 10.0001 1.8515C14.9476 1.8515 18.9584 5.86228 18.9584 10.8098C18.9584 15.7574 14.9476 19.7682 10.0001 19.7682C5.05253 19.7682 1.04175 15.7574 1.04175 10.8098C1.04175 10.4647 1.32157 10.1848 1.66675 10.1848C2.01193 10.1848 2.29175 10.4647 2.29175 10.8098C2.29175 15.067 5.74289 18.5182 10.0001 18.5182C14.2573 18.5182 17.7084 15.067 17.7084 10.8098C17.7084 6.55264 14.2573 3.1015 10.0001 3.1015C9.6549 3.1015 9.37508 2.82168 9.37508 2.4765ZM10.0001 7.68483C10.3453 7.68483 10.6251 7.96466 10.6251 8.30983V11.0182H13.3334C13.6786 11.0182 13.9584 11.298 13.9584 11.6432C13.9584 11.9883 13.6786 12.2682 13.3334 12.2682H10.0001C9.6549 12.2682 9.37508 11.9883 9.37508 11.6432V8.30983C9.37508 7.96466 9.6549 7.68483 10.0001 7.68483Z" fill="white"/>
<path fill-rule="evenodd" clip-rule="evenodd" d="M7.58306 2.80778C7.70737 3.1298 7.54709 3.49162 7.22507 3.61593C7.10721 3.66142 6.99074 3.70974 6.87575 3.76079C6.56026 3.90085 6.19097 3.75863 6.05091 3.44315C5.91085 3.12766 6.05307 2.75837 6.36855 2.61831C6.50231 2.55893 6.6378 2.50273 6.77492 2.44979C7.09694 2.32549 7.45875 2.48577 7.58306 2.80778ZM4.7065 4.34339C4.94455 4.59335 4.9349 4.98896 4.68494 5.22701C4.59355 5.31405 4.50429 5.40331 4.41726 5.4947C4.1792 5.74465 3.78359 5.75431 3.53363 5.51625C3.28368 5.2782 3.27402 4.88259 3.51208 4.63263C3.61313 4.52652 3.71677 4.42289 3.82288 4.32183C4.07284 4.08378 4.46845 4.09343 4.7065 4.34339ZM2.63339 6.86067C2.94888 7.00072 3.09109 7.37001 2.95103 7.6855C2.89998 7.80049 2.85167 7.91696 2.80617 8.03483C2.68187 8.35684 2.32005 8.51712 1.99803 8.39282C1.67601 8.26851 1.51573 7.90669 1.64004 7.58467C1.69297 7.44755 1.74918 7.31206 1.80856 7.17831C1.94861 6.86282 2.31791 6.72061 2.63339 6.86067Z" fill="white"/>
</svg>
