<svg width="25" height="24" viewBox="0 0 25 24" fill="none" xmlns="http://www.w3.org/2000/svg">
<path d="M16.5303 10.0303C16.8232 9.73744 16.8232 9.26256 16.5303 8.96967C16.2374 8.67678 15.7626 8.67678 15.4697 8.96967L11 13.4393L9.53033 11.9697C9.23744 11.6768 8.76256 11.6768 8.46967 11.9697C8.17678 12.2626 8.17678 12.7374 8.46967 13.0303L10.4697 15.0303C10.7626 15.3232 11.2374 15.3232 11.5303 15.0303L16.5303 10.0303Z" fill="white"/>
<path fill-rule="evenodd" clip-rule="evenodd" d="M12.5574 1.25H12.4426C10.1342 1.24999 8.32519 1.24998 6.91371 1.43975C5.46897 1.63399 4.32895 2.03933 3.43414 2.93414C2.53933 3.82895 2.13399 4.96897 1.93975 6.41371C1.74998 7.82519 1.74999 9.63422 1.75 11.9426V12.0574C1.74999 14.3658 1.74998 16.1748 1.93975 17.5863C2.13399 19.031 2.53933 20.1711 3.43414 21.0659C4.32895 21.9607 5.46897 22.366 6.91371 22.5603C8.32519 22.75 10.1342 22.75 12.4426 22.75H12.5574C14.8658 22.75 16.6748 22.75 18.0863 22.5603C19.531 22.366 20.6711 21.9607 21.5659 21.0659C22.4607 20.1711 22.866 19.031 23.0603 17.5863C23.25 16.1748 23.25 14.3658 23.25 12.0574V11.9426C23.25 9.63423 23.25 7.82519 23.0603 6.41371C22.866 4.96897 22.4607 3.82895 21.5659 2.93414C20.6711 2.03933 19.531 1.63399 18.0863 1.43975C16.6748 1.24998 14.8658 1.24999 12.5574 1.25ZM4.4948 3.9948C5.06445 3.42514 5.83517 3.09825 7.11358 2.92637C8.41356 2.75159 10.1218 2.75 12.5 2.75C14.8782 2.75 16.5864 2.75159 17.8864 2.92637C19.1648 3.09825 19.9355 3.42514 20.5052 3.9948C21.0749 4.56445 21.4018 5.33517 21.5736 6.61358C21.7484 7.91356 21.75 9.62177 21.75 12C21.75 14.3782 21.7484 16.0864 21.5736 17.3864C21.4018 18.6648 21.0749 19.4355 20.5052 20.0052C19.9355 20.5749 19.1648 20.9018 17.8864 21.0736C16.5864 21.2484 14.8782 21.25 12.5 21.25C10.1218 21.25 8.41356 21.2484 7.11358 21.0736C5.83517 20.9018 5.06445 20.5749 4.4948 20.0052C3.92514 19.4355 3.59825 18.6648 3.42637 17.3864C3.25159 16.0864 3.25 14.3782 3.25 12C3.25 9.62177 3.25159 7.91356 3.42637 6.61358C3.59825 5.33517 3.92514 4.56445 4.4948 3.9948Z" fill="white"/>
</svg>
